<?xml version="1.0" encoding="utf-8" ?>
<svg xmlns="http://www.w3.org/2000/svg" xmlns:xlink="http://www.w3.org/1999/xlink" width="1024" height="1024">
	<path fill="#E5989B" transform="scale(2 2)" d="M171.904 127.589C180.171 118.871 188.822 110.564 201.17 108.575C223.479 105.962 226.473 133.132 223.216 149.349C271.266 156.937 267.741 193.578 226.981 207.272C243.805 241.966 226.768 265.975 191.74 247.607C195.205 263.436 196.238 287.116 196.233 303.101L267.786 303.101L267.778 232.106C267.776 215.615 271.127 200.791 291.554 198.89C297.015 198.382 302.726 198.723 308.221 198.715C339.951 198.669 341.796 196.906 360.85 220.684L397.457 266.139C417.968 291.19 420.988 294.071 415.299 324.847L410.158 351.42C409.007 357.23 408.525 363.359 407.047 369.074C405.161 376.365 395.724 374.424 389.457 374.426L370.625 374.414C368.9 391.212 355.205 402.633 338.517 402.734L337.644 402.695C323.513 402.005 306.741 389.936 307.656 374.414L196.233 374.414C189.922 414.408 136.836 410.044 133.134 375.376C118.808 375.296 95.8498 380.293 95.5037 359.013C95.3562 349.95 95.4829 340.863 95.4839 331.799C95.4862 310.529 94.4834 303.077 118.502 303.087L186.47 303.101C186.563 281.181 184.607 260.086 180.208 238.675C171.391 251.089 149.677 266.005 136.795 251.313C126.684 239.781 129.881 227.36 130.754 214.382C89.1702 210.193 75.8702 169.987 124.651 157.575C118.526 139.899 117.162 111.441 143.734 113.218C154.302 113.925 165.009 119.644 171.904 127.589ZM202.325 118.328C193.054 119.925 182.368 127.617 178.27 136.265C179.692 142.745 181.496 148.573 181.569 155.32C186.504 156.434 190.84 159.272 194.664 162.493C196.041 163.888 197.317 165.305 198.545 166.833C207.31 161.53 211.314 157.671 213.872 147.318C216.171 138.01 216.493 116.998 202.325 118.328ZM139.451 122.599C124.929 124.438 131.368 148.248 134.476 157.575C141.312 157.666 148.317 160.095 153.719 164.319C155.342 162.556 156.827 161.155 158.887 159.905C162.813 157.051 167.056 155.576 171.904 155.32C170.909 136.939 158.71 121.964 139.451 122.599ZM219.767 158.791C216.477 166.38 209.845 171.899 202.325 175.058C204.187 182.784 202.549 185.766 202.325 193.04C212.974 194.728 218.427 201.472 228.411 196.754C252.267 185.012 259.566 168.318 227.746 160.252C225.102 159.582 222.417 159.346 219.767 158.791ZM172.704 164.319C147.96 169.209 153.024 204.438 178.27 201.49C202.57 197.458 196.717 161.525 172.704 164.319ZM128.675 166.833C119.899 168.173 110.229 172.754 104.815 180.028C96.046 191.812 116.91 201.472 125.749 203.749C129.108 204.406 132.384 204.747 135.808 204.747C139.187 199.429 143.058 195.516 148.921 193.04C145.826 186.413 146.619 179.431 148.921 172.686C142.572 168.282 136.423 166.137 128.675 166.833ZM153.719 202.035C133.001 208.135 132.553 258.57 158.887 245.024C171.449 237.849 179.553 226.058 175.185 211.4C168.823 210.949 162.543 209.34 157.371 205.434C156.216 204.562 154.92 202.635 153.719 202.035ZM196.609 202.035C193.098 204.887 189.792 207.556 185.668 209.501C185.662 215.077 185.359 223.244 185.668 228.463C190.971 239.7 202.004 241.008 211.596 245.024C215.195 244.504 219.714 243.46 221.963 240.354C226.964 233.448 221.188 211.258 214.693 207.005C210.207 204.067 201.893 202.138 196.609 202.035ZM291.914 208.443C273.056 212.208 277.458 230.983 277.457 245.714L277.463 291.749C277.482 312.836 281.282 312.781 261.436 312.77L122.424 312.757C107.571 312.74 105.274 309.872 105.295 326.443L105.295 340.725C105.293 370.667 102.869 365.393 133.134 365.502C138.5 337.175 175.177 329.191 191.483 353.901C193.65 357.185 194.92 361.018 196.233 364.703L247.231 364.703L307.656 364.703C314.791 335.532 351.657 330.147 366.363 354.422C368.309 357.635 369.454 361.16 370.625 364.703L397.83 364.703L403.355 335.7C407.298 315.522 412.205 306.765 402.683 288.107C389.209 287.809 357.782 289.895 346.182 286.825C313.199 278.097 309.421 230.963 345.977 217.445C335.058 205.815 323.292 208.438 308.927 208.43C303.277 208.426 297.558 208.243 291.914 208.443ZM352.101 226.291C327.545 231.812 321.235 261.74 342.034 274.412C350.639 279.655 362.63 278.23 372.347 278.201L394.695 278.201C388.658 270.428 382.223 262.983 376.075 255.306L361.189 236.866C359.973 235.364 353.707 226.498 352.101 226.291ZM163.748 348.855C133.076 352.042 137.37 393.782 165.75 393.254C195.203 389.194 191.292 348.386 163.748 348.855ZM338.517 348.855C309.293 351.3 308.971 391.437 339.911 393.254C369.351 390.228 367.626 349.79 338.517 348.855Z"/>
</svg>
