<?xml version="1.0" encoding="utf-8" ?>
<svg xmlns="http://www.w3.org/2000/svg" xmlns:xlink="http://www.w3.org/1999/xlink" width="1024" height="1024">
	<path fill="#E5989B" transform="scale(2 2)" d="M228.491 144.973C231.519 129.317 238.8 117.591 254.952 112.289C269.589 111.447 281.514 132.24 283.701 144.973C299.998 141.438 312.204 145.688 323.411 158.054C328.829 164.032 327.781 165.431 324.81 173.163C320.415 184.603 311.892 193.048 300.777 197.982C309.607 209.795 309.2 224.541 303.903 237.727C300.821 245.398 298.663 245.219 290.45 245.712C278.607 246.423 269.151 242.647 260.322 234.865C262.579 251.427 261.772 267.717 261.195 284.343C273.973 267.472 288.258 259.242 309.805 261.406C312.753 261.702 317.653 261.714 318.978 265.029C320.555 268.977 315.787 282.811 314.162 286.868C321.86 280.434 330.649 275.123 340.238 272.026C344.117 270.773 348.39 270.047 352.028 268.158C354.869 266.683 369.76 252.589 371.923 249.702C373.271 247.902 381.845 219.828 383.041 216.227C387.75 202.044 389.139 193.077 406.525 196.962C410.184 185.537 417.038 176.427 429.839 182.79C442.577 160.751 471.778 175.133 465.959 195.706C463.837 203.208 461.165 210.586 458.765 218.004L437.54 285.61C430.829 307.166 420.324 323.213 401.051 336.175C391.65 342.497 379.662 346.022 373.729 356.348C365.937 369.911 369.887 381.791 368.609 395.134C368.21 399.301 363.084 401.48 360.214 397.955C357.633 394.784 359.088 375.08 359.56 370.371C361.703 348.989 371.12 342.125 388.718 332.222C423.381 312.716 425.004 290.525 435.688 257.588L451.937 207.706C453.077 204.166 456.887 194.411 457.071 191.159C457.556 182.556 446.563 178.521 440.597 184.047L440.359 184.271C437.123 188.349 424.468 225.471 422.493 232.428C431.11 246.236 425.492 253.744 415.516 263.598L383.263 295.089C380.609 297.713 376.887 303.523 372.386 302.303C361.971 299.481 378.116 286.329 380.204 284.31L404.177 261.01C407.693 257.579 411.709 254.264 414.868 250.513C421.876 242.189 411.034 230.197 401.77 235.313C397.402 237.726 376.053 259.811 371.349 264.35C357.731 277.493 361.15 275.53 343.33 281.719C324.226 288.354 308.833 302.311 304.965 322.988C301.693 340.481 301.219 368.962 300.829 386.738C300.753 390.182 301.995 397.226 298.153 399.191C295.647 400.471 292.127 399.469 291.039 396.77C289.535 393.039 293.794 328.279 295.07 320.903C296.019 315.41 298.082 310.37 300.255 305.276C288.265 313.711 274.529 315.216 260.322 312.338C259.123 320.239 255.411 344.29 250.035 350.086C246.79 353.586 240.987 351.196 241.722 346.386C242.313 342.522 244.43 338.329 245.641 334.567C248.958 324.263 250.792 314.112 250.704 303.273C227.447 303.178 209.455 301.416 197.366 277.339C194.6 271.83 190.723 257.285 192.89 251.481C194.745 246.516 211.197 249.484 215.152 250.274C230.541 253.35 245.701 263.442 251.859 278.251L251.859 234.865C245.133 239.819 239.219 243.56 230.807 244.469C212.204 246.48 208.4 244.174 205.539 225.483C204.071 215.888 205.366 205.923 211.246 197.982C197.823 188.704 186.411 181.759 185.617 162.088C192.817 146.593 212.65 141.092 228.491 144.973ZM255.793 122.463C230.664 135.572 243.31 154.973 233.966 157.252L233.624 157.167C230.693 156.419 227.96 155.071 225.081 154.164C213.585 150.544 202.3 156.137 195.422 165.346C199.955 175.915 203.62 184.265 215.005 188.792C230.204 194.835 226.364 193.236 219.3 203.369C212.309 213.396 214.541 224.149 218.391 234.865C251.491 236.655 248.138 213.94 258.256 216.423C260.134 218.419 261.236 220.98 262.924 223.12C271.019 233.389 281.712 236.336 294.098 235.608C306.383 207.638 284.096 199.115 286.712 193.542C288.864 188.956 308.818 192.221 316.921 165.346C293.755 142.111 280.184 160.955 275.554 156.629C273.791 154.981 274 144.931 273.304 141.929C271.684 134.948 263.57 123.868 255.793 122.463ZM422.493 190.566C415.792 192.113 413.897 204.495 411.85 210.174C410.131 214.942 408.08 219.625 406.525 224.446C407.879 224.575 409.222 224.683 410.553 224.973L414.238 225.947C415.693 221.22 426.409 194.054 425.634 191.782C424.778 190.838 423.705 190.688 422.493 190.566ZM398.62 205.19C395.746 207.957 388.721 229.923 387.467 234.865L389.377 233.055C395.337 227.979 401.788 213.64 402.167 207.28C402.27 205.555 399.896 205.273 398.62 205.19ZM202.466 258.741C204.953 281.767 223.265 296.571 246.426 293.452C246.52 274.349 222.159 258.626 204.148 258.718L202.466 258.741ZM300.255 271.067C282.334 272.012 268.513 286.459 264.496 303.273C267.695 303.869 270.854 303.977 274.1 303.959C293.491 302.266 306.115 290.444 308.418 271.067C305.963 270.835 302.679 270.356 300.255 271.067Z"/>
	<path fill="#E5989B" transform="scale(2 2)" d="M259.162 205.19C227.686 208.116 224.032 164.729 252.551 160.587C281.069 156.993 289.335 198.828 259.162 205.19ZM253.832 170.29C236.582 173.985 241.119 197.572 258.256 195.43C274.121 189.695 271.203 169.431 253.832 170.29Z"/>
	<path fill="#E5989B" transform="scale(2 2)" d="M143.53 396.796C142.882 386.599 144.695 376.092 142.299 366.03C138.227 348.928 125.654 345.828 112.533 337.729C85.3207 320.931 78.1465 296.755 69.0886 268.098L49.5903 206.35C45.205 192.21 42.1365 176.147 62.3601 171.788C70.8486 171.071 78.6741 174.877 82.4529 182.79C93.2782 176.256 103.103 185.019 105.971 195.43C124.669 190.326 128.257 212.122 132.641 224.73C134.56 230.251 136.815 235.662 138.794 241.164C145.522 259.867 154.555 266.063 173.173 272.664C203.759 283.509 216.059 304.501 217.997 335.036L220.89 380.269C221.137 384.684 222.925 394.366 220.172 398.158C218.594 400.331 214.958 400.201 213.046 398.558C210.482 396.353 209.093 346.399 208.578 339.819C206.554 313.978 200.89 293.642 173.301 282.857C165.335 279.743 157.126 277.976 150.105 272.772C141.993 266.759 128.884 252.711 121.188 244.831C116.624 240.158 112.238 232.983 104.752 233.806C97.7034 234.582 93.7612 242.46 96.7154 248.773C98.4034 252.38 102.783 255.921 105.562 258.813L128.801 282.662C130.743 284.645 150.795 302.07 137.008 302.351C133.027 302.432 130.368 298.115 127.909 295.609L116.747 284.343C109.925 276.851 94.0925 262.676 89.2172 255.019C84.8221 248.117 84.5946 238.957 89.8815 232.428C86.8669 222.762 83.0915 213.309 79.8083 203.73C77.1421 195.952 75.0505 179.281 63.0961 181.865C50.5578 184.576 57.2688 198.047 59.758 205.682L76.0217 257.298C84.6183 285.215 91.4896 313.878 118.335 329.789C150.591 348.908 153.267 351.92 153.341 388.287C153.351 393.462 155.031 398.202 148.519 399.809C146.327 399.285 145.051 398.47 143.53 396.796ZM88.6896 190.566C87.8598 190.767 87.0285 190.859 86.4137 191.498C86.1997 194.845 96.2526 220.414 97.9601 225.947L102.087 224.446L105.971 224.446C102.355 217.466 100.174 208.816 97.6202 201.334C95.9639 196.481 95.1372 190.219 88.6896 190.566ZM109.079 205.19C110.93 209.826 115.526 224.673 117.345 227.206C118.08 228.228 125.047 235.014 126.263 235.608L119.66 217.326C117.243 210.6 117.316 204.057 109.079 205.19Z"/>
</svg>
