<?xml version="1.0" encoding="utf-8" ?>
<svg xmlns="http://www.w3.org/2000/svg" xmlns:xlink="http://www.w3.org/1999/xlink" width="1024" height="1024">
	<path fill="#E5989B" transform="scale(2 2)" d="M186.55 275.023C175.823 284.157 168.754 277.602 160.078 269.578C147.053 257.532 145.454 252.543 149.257 235.5L152.435 220.863C158.408 193.081 160.468 164.959 161.739 136.625C162.019 130.399 162.895 123.744 162.321 117.545C161.259 106.065 150.285 97.2665 138.812 98.594C123.315 100.387 114.538 117.908 121.833 131.36C124.035 135.421 156.142 161.856 140.047 162.904C136.229 163.153 128.026 153.133 125.404 150.505C116.566 141.651 109.294 134.451 109.22 121.003C109.139 106.119 118.631 93.3737 133.032 89.571C140.055 87.7165 148.079 88.3577 155.297 88.3571L179.377 88.3598L353.064 88.3673C359.392 88.3605 366.923 87.8412 373.117 88.4556C395.665 90.6925 409.684 118.528 397.57 137.754C395.682 140.751 377.25 163.191 375.14 149.881C374.472 145.667 384.552 138.653 387.733 134.519C399.307 119.477 385.368 95.6486 366.817 98.331C358.347 99.5557 349.72 107.692 350.146 116.708C350.345 120.905 351.762 125.275 352.665 129.387L358.765 156.689C372.803 222.357 383.254 282.124 386.817 349.476C387.331 359.199 388.683 373.551 387.286 382.888C384.33 402.657 367.89 419.612 348.01 422.556C338.706 423.933 326.099 423.219 316.429 423.218L192.151 423.239C162.408 423.238 136.902 407.946 132.358 376.222C131.18 367.998 131.792 352.913 132.062 344.351L133.535 296.387C133.652 292.917 132.713 282.563 134.902 279.873C136.547 277.852 140.076 277.488 141.989 279.315C145.012 282.201 143.539 288.83 143.486 292.512L142.687 334.382C142.391 345.302 141.721 356.197 141.679 367.131C141.597 388.71 156.518 408.099 177.849 412.351C184.217 413.62 190.834 413.233 197.297 413.234L314.606 413.229C305.74 405.453 296.768 392.139 298.608 379.986C300.791 365.577 312.709 368.367 322.607 369.412C344.258 371.699 359.602 365.915 376.767 353.294C377.338 342.731 375.62 329.312 374.771 318.498C370.673 266.295 360.802 215.352 350.124 164.19L343.554 134.595C340.328 119.874 337.049 111.95 347.473 98.5014L164.09 98.5014C174.504 110.416 172.377 121.639 171.736 136.218C170.225 170.583 167.633 198.806 160.255 232.147C155.32 254.447 156.942 254.833 175.684 270.104C180.771 266.847 189.383 257.056 194.267 252.42C201.047 245.985 208.497 239.977 214.966 233.258C210.862 229.853 190.301 210.71 187.88 206.819C185.512 203.012 189.381 197.848 193.713 199.561C196.06 200.49 219.951 224.428 223.248 227.97C226.641 231.614 226.877 233.861 224.68 238.502C226.93 239.477 229.137 240.342 231.484 241.068C237.077 239.75 242.643 237.078 248.085 235.178C261.356 230.545 274.836 235.099 287.874 238.502C283.247 231.069 286.786 229.442 291.917 224.256C295.893 220.236 299.976 216.353 303.994 212.382C306.964 209.446 316.956 196.128 321.971 200.204C328.222 205.286 317.562 212.784 314.198 216.038C308.303 221.74 302.25 227.338 296.575 233.258C304.802 240.972 326.217 265.566 334.421 270.104C336.203 268.99 348.899 253.822 350.999 264.908C351.592 268.039 348.512 270.429 346.608 272.437C339.129 280.325 333.297 282.355 324.235 275.023C319.851 279.111 315.324 283.689 311.587 288.373C308.794 294.546 311.859 299.97 301.565 303.562C301.608 310.41 297.923 316.074 290.852 317.326C289.588 324.371 286.387 328.773 278.966 330.288C276.776 339.458 267.817 345.27 258.711 340.632C254.564 338.52 250.661 335.28 246.717 332.762L223.913 318.173C212.619 310.927 203.557 307.873 204.02 292.497C197.894 287.136 192.421 280.7 186.55 275.023ZM259.789 242.617C257.02 242.876 224.522 250.343 235.716 257.991C240.775 261.448 254.631 247.086 270.616 256.721C278.694 261.591 286.619 266.723 294.615 271.727C298.558 274.316 302.634 276.759 306.505 279.447C309.816 275.53 313.769 272.196 316.808 268.045C311.798 262.675 300.103 252.08 296.575 246.275C285.93 247.161 283.435 248.925 273.383 244.972C269.037 243.264 264.464 242.442 259.789 242.617ZM216.177 246.275C210.342 250.257 198.419 262.123 193.372 267.251C200.528 274.588 207.523 282.274 214.966 289.303C209.986 299.927 220.15 304.083 227.433 308.594C232.74 311.881 237.988 315.269 243.25 318.627L256.765 327.32C259.176 328.893 261.758 330.978 264.386 332.121C266.908 333.218 270.236 329.709 268.662 327.321C267.168 325.055 260.004 321.638 257.34 318.782C259.21 316.252 261.06 313.261 263.264 311.037C265.696 312.73 275.821 320.298 278.479 319.736C286.54 318.031 274.487 310.558 273.13 309.662C271.22 308.345 269.246 307.072 267.438 305.616C269.109 303.003 270.794 300.066 273.13 297.984L283.161 304.468C284.574 305.39 286.08 306.651 287.591 307.374C290.332 308.685 292.513 305.864 291.361 303.35C290.059 300.508 279.766 295.531 276.78 292.497L276.924 292.212C277.759 290.604 280.281 285.784 281.889 285.218C286.355 285.367 296.075 296.87 299.629 293.611C306.304 287.491 288.591 279.803 284.836 277.419C278 273.08 271.23 268.067 264.092 264.259C254.085 258.919 240.066 275.528 228.634 265.446C223.665 261.064 222.85 255.032 224.68 249.013C222.316 248.017 218.759 246.054 216.177 246.275ZM377.736 365.043C351.152 382.492 339.894 380.295 311.587 377.997C309.849 379.139 309.205 379.969 308.4 381.851C309.327 389.848 312.517 396.593 317.982 402.49C340.16 423.73 374.809 408.759 377.646 379.602C377.813 377.886 378.124 366.472 377.736 365.043Z"/>
	<path fill="#E5989B" transform="scale(2 2)" d="M301.565 141.492C298.152 141.731 294.624 141.508 291.196 141.503L241.385 141.505C237.153 141.511 225.436 142.515 221.828 140.825C217.052 138.588 218.822 132.998 223.014 131.493C232.713 131.179 299.732 131.028 302.038 131.887C306.299 133.475 305.448 139.974 301.565 141.492Z"/>
	<path fill="#E5989B" transform="scale(2 2)" d="M301.565 173.31C298.414 173.51 295.161 173.32 291.998 173.318L272.758 173.312C266.24 173.311 224.817 174.208 221.999 173.001C217.077 170.893 218.508 164.897 223.014 163.246C234.977 162.856 247.086 163.237 259.069 163.238L287.585 163.241C290.729 163.242 299.211 162.779 301.62 163.551C307.072 165.298 305.819 171.167 301.565 173.31Z"/>
</svg>
