<?xml version="1.0" encoding="utf-8" ?>
<svg xmlns="http://www.w3.org/2000/svg" xmlns:xlink="http://www.w3.org/1999/xlink" width="1024" height="1024">
	<path fill="#E5989B" transform="scale(2 2)" d="M206.699 203.914C204.011 202.48 201.13 201.443 198.376 200.144C141.916 173.499 166.707 107.222 226.735 106.037C240.489 103.746 258.568 111.008 270.132 117.536C274.328 117.579 278.521 117.415 282.716 117.598C308.045 118.698 338.461 131.995 346.26 158.222C354.966 187.502 329.346 209.58 303.706 217.134C303.685 222.28 306.907 249.061 294.718 240.581C291.951 238.656 283.991 230.279 281.622 227.409C279.159 225.262 276.895 222.83 274.593 220.508C260.32 219.41 247.695 215.869 235.652 207.908C231.198 213.207 223.175 223.331 218.246 227.765C207.827 237.138 207.781 208.369 206.784 204.255L206.699 203.914ZM228.936 116.24C175.536 116.502 155.356 173.207 205.812 192.368C219.094 197.412 217.089 195.377 217.822 212.094C220.131 210.203 222.191 208.183 223.924 205.739C234.27 195.817 227.055 197.497 241.967 195.085C260.482 192.091 281.589 177.618 282.109 157.33C282.767 131.656 251.673 113.657 228.936 116.24ZM281.622 127.988C307.833 161.748 283.657 193.225 248.97 203.914C258.164 207.985 268.055 210.335 278.14 210.214C282.95 213.271 288.326 220.638 293.161 224.669L293.623 224.332L293.328 224.742C293.691 224.408 293.614 224.283 293.685 223.813C293.542 206.272 292.192 210.878 306.467 205.517C320.629 200.198 336.407 188.255 337.742 171.943C340.014 144.191 305.33 127.665 281.622 127.988Z"/>
	<path fill="#E5989B" transform="scale(2 2)" d="M247.074 163.257L223.96 163.24C220.207 163.245 211.493 164.417 208.307 162.232C203.929 159.23 205.898 153.482 212.172 153.056L236.845 153.049C240.684 153.041 244.889 152.598 248.677 153.141C254.875 154.03 253.875 163.001 247.074 163.257Z"/>
	<path fill="#E5989B" transform="scale(2 2)" d="M318.617 336.43C316.343 327.079 316.45 317.823 321.082 309.18C328.073 296.134 324.315 293.224 321.533 279.372C316.551 254.563 319.227 228.023 338.817 209.847C348.482 200.88 362.764 195.233 375.98 195.728C385.913 194.013 398.468 198.2 407.132 202.914C435.379 218.283 441.599 245.384 437.288 274.614C436.359 280.911 433.354 291.141 433.888 296.988C435.156 310.872 449.169 317.142 438.521 336.43C459.432 346.751 463.506 366.002 463.498 387.489C463.496 392.559 463.766 397.73 463.488 402.786C460.14 406.572 456.756 406.735 453.522 402.786C453.162 385.875 456.496 368.108 444.713 354.092C433.677 340.964 414.688 340.637 398.417 339.225C395.293 345.893 389.968 349.536 382.808 351.206C372.815 353.417 361.573 348.035 357.417 338.597C346.202 341.364 329.805 340.93 320.422 347.012C303.571 357.937 304.271 373.764 304.454 390.986C304.5 395.241 306.306 408.504 297.586 405.595C292.88 404.025 294.517 395.154 294.509 391.427C294.464 369.915 294.851 347.119 318.617 336.43ZM377.169 205.739C338.385 205.771 324.544 241.929 331.3 276.064C332.843 283.86 335.751 291.819 335.12 299.856C334.015 313.944 324.092 315.163 327.946 332.823C337.232 332.419 347.048 329.806 356.558 329.17C356.66 325.458 356.611 321.751 356.558 318.038C344.674 308.215 339.435 297.944 337.96 282.186C337.419 276.399 338.345 260.093 340.102 254.579C342.407 247.344 351.73 243.46 358.243 241.117C357.598 239.721 356.997 238.37 356.558 236.891C360.294 225.61 366.325 235.298 369.515 239.848C387.159 262.976 411.449 256.549 416.445 262.427C417.342 278.883 417.203 299.106 405.776 311.751C403.829 313.904 401.672 315.872 399.745 318.038C399.743 321.745 399.67 325.465 399.745 329.17C409.445 330.48 419.417 332.153 429.176 332.823C436.638 315.471 425.318 312.77 424.089 297.874C422.745 281.572 431.13 267.006 427.738 246.905C423.704 222.999 401.543 204.323 377.169 205.739ZM364.496 250.065C359.129 251.319 353.95 253.355 349.894 257.2C346.43 270.024 346.668 288.219 353.203 299.647C360.454 312.327 374.666 317.767 388.307 312.767C406.897 300.764 406.563 289.139 406.497 269.401C393.918 268.133 382.497 264.538 372.367 256.732C370.307 255.146 366.388 250.971 364.496 250.065ZM389.949 323.012C381.865 324.811 374.484 325.747 366.448 323.012C366.387 328.641 365.344 334.104 369.515 338.597C374.753 342.76 383.273 343.038 387.753 337.546C390.943 333.636 389.809 327.884 390.051 323.185L389.949 323.012Z"/>
	<path fill="#E5989B" transform="scale(2 2)" d="M73.736 336.43C69.4167 323.318 68.8821 318.875 75.5146 305.404C82.5157 291.185 76.1833 284.853 74.2554 269.918C69.3547 231.951 88.5276 200.58 127.669 195.728C150.768 194.359 171.342 201.35 184.382 221.743C195.337 238.875 193.39 258.429 190.057 277.469C187.71 290.876 185.174 295.328 191.287 307.677C195.929 317.054 196.817 326.213 194.586 336.43C215.182 353.366 217.864 358.337 217.818 387.378C217.812 391.256 219.412 402.058 215.991 404.678C213.406 406.659 209.062 405.612 208.095 402.366C204.357 389.823 213.421 372.44 201.134 355.702C191.409 342.453 171.611 341.01 155.968 338.597C152.287 345.563 146.569 350.752 138.699 352.522C127.852 354.303 119.264 348.382 113.886 339.225C106.556 339.747 87.2555 341.988 80.9112 344.371C57.6238 353.118 59.2201 373.425 59.2714 393.164C59.291 400.696 58.3794 411.297 49.2389 402.786C48.9992 399.07 49.2284 395.175 49.2262 391.44C49.2113 365.959 49.0379 351.217 73.736 336.43ZM129.63 205.739C96.7622 209.451 79.8473 234.908 83.7229 267.057C84.8841 276.689 88.9241 285.944 88.6792 295.698C88.2806 311.576 74.9856 314.946 83.3128 332.823C93.0435 332.1 103.469 331.263 112.99 329.17L112.99 316.642C104.045 308.657 98.0199 301.622 97.2907 288.641C97.0097 283.638 97.2955 266.317 100.299 262.866C103.57 259.106 122.543 264.791 134.356 252.686C137.717 249.242 139.559 245.098 142.109 241.117C144.908 237.348 147.869 240.619 151.028 242.189C155.678 244.499 169.189 248.599 171.384 250.47C176.57 254.891 175.719 272.657 175.64 279.508C175.436 297.225 170.915 308.277 156.781 318.695L156.781 328.456C166.114 330 175.375 332.43 184.752 333.611C189.444 317.597 178.855 311.784 177.839 297.694C176.174 274.606 190.76 253.459 176.761 228.024C166.857 210.031 148.636 205.174 129.63 205.739ZM147.894 251.651C139.921 265.941 123.834 271.893 108.187 271.685C105.466 289.28 107.844 306.113 126.609 312.767C142.65 318.138 159.273 309.362 164.419 293.225C166.576 286.462 166.356 265.431 164.605 258.272C158.893 256.299 153.346 254.284 147.894 251.651ZM122.734 321.889C122.699 327.625 121.442 334.632 125.842 339.084C131.027 344.331 139.229 343.469 144.316 338.597C147.96 333.684 147.299 328.774 147.219 323.012C137.926 324.968 131.861 324.819 122.734 321.889Z"/>
	<path fill="#E5989B" transform="scale(2 2)" d="M184.752 405.739C176.719 405.932 178.825 396.645 175.697 391.459C173.967 388.59 159.006 380.009 170.294 375.751C180.776 374.779 195.62 401.622 184.752 405.739Z"/>
	<path fill="#E5989B" transform="scale(2 2)" d="M428.456 405.739C420.931 405.76 423.106 396.998 420.507 392.322C418.699 389.069 402.975 378.072 416.445 375.751C424.973 376.456 440.234 402.024 428.456 405.739Z"/>
	<path fill="#E5989B" transform="scale(2 2)" d="M85.9384 405.739C71.336 404.892 84.6016 380.999 95.0739 375.751C97.2848 375.493 99.6168 376.142 100.692 378.295C103.592 384.105 94.2193 387.424 91.9143 391.962C89.5661 396.585 91.3367 403.197 85.9384 405.739Z"/>
	<path fill="#E5989B" transform="scale(2 2)" d="M329.7 405.739C317.176 405.582 327.44 380.721 339.381 375.751C342.224 375.576 345.655 377.859 345.233 380.991C344.831 383.98 338.804 388.272 336.746 391.812C333.742 396.981 336.556 403.487 329.7 405.739Z"/>
</svg>
